<svg width="60" height="60" viewBox="0 0 60 60" fill="none" xmlns="http://www.w3.org/2000/svg">
<circle cx="30" cy="30" r="30" fill="#B7090A"/>
<path d="M23.575 21.45C25.2583 20.25 27.2083 19.65 29.425 19.65C31.2417 19.65 32.725 20.075 33.875 20.925C35.0417 21.775 35.625 23.025 35.625 24.675C35.625 25.9583 35.2083 27.0583 34.375 27.975C33.5583 28.875 32.4417 29.7417 31.025 30.575C29.3583 31.5583 28.3333 32.225 27.95 32.575C27.5 33.0083 27.2667 33.4167 27.25 33.8L35.75 33.775V37H23V35.325C23 34.4083 23.1333 33.5833 23.4 32.85C23.6833 32.1167 24.1333 31.4583 24.75 30.875C25.3833 30.2917 25.9083 29.8583 26.325 29.575C26.7417 29.275 27.375 28.875 28.225 28.375C28.275 28.3417 28.3167 28.3167 28.35 28.3C28.3833 28.2833 28.425 28.2583 28.475 28.225C28.525 28.1917 28.5667 28.1667 28.6 28.15C28.7 28.0833 28.9083 27.9667 29.225 27.8C29.5583 27.6167 29.775 27.4917 29.875 27.425C29.975 27.3583 30.15 27.25 30.4 27.1C30.65 26.9333 30.825 26.8083 30.925 26.725C31.025 26.625 31.15 26.4917 31.3 26.325C31.4667 26.1583 31.5833 26.0083 31.65 25.875C31.7167 25.7417 31.775 25.5833 31.825 25.4C31.875 25.2167 31.9 25.025 31.9 24.825C31.9 24.2083 31.65 23.7417 31.15 23.425C30.65 23.0917 29.9583 22.925 29.075 22.925C27.175 22.925 25.3417 23.6 23.575 24.95V21.45Z" fill="white"/>
</svg>
