<svg width="60" height="60" viewBox="0 0 60 60" fill="none" xmlns="http://www.w3.org/2000/svg">
<circle cx="30" cy="30" r="30" fill="#B7090A"/>
<path d="M35.175 24.35C35.175 25.2167 34.9417 25.975 34.475 26.625C34.025 27.2583 33.4 27.7167 32.6 28C33.55 28.2833 34.3333 28.7917 34.95 29.525C35.5667 30.2417 35.875 31.1833 35.875 32.35C35.875 33.2167 35.6833 33.9833 35.3 34.65C34.9333 35.3 34.425 35.8167 33.775 36.2C33.125 36.5833 32.4 36.8667 31.6 37.05C30.8167 37.25 29.975 37.35 29.075 37.35C26.9917 37.35 25.025 36.9667 23.175 36.2V32.725C24.8083 33.6417 26.675 34.0833 28.775 34.05C29.825 34.05 30.675 33.8667 31.325 33.5C31.975 33.1333 32.3 32.575 32.3 31.825C32.3 30.5083 31.3167 29.85 29.35 29.85H26.55L26.575 26.65L28.925 26.675C29.775 26.675 30.4333 26.525 30.9 26.225C31.3833 25.9083 31.625 25.4583 31.625 24.875C31.625 24.2583 31.3583 23.7833 30.825 23.45C30.2917 23.1 29.5167 22.925 28.5 22.925C26.8167 22.925 25.1417 23.4333 23.475 24.45V20.975C25.1083 20.0917 26.9583 19.65 29.025 19.65C30.8583 19.65 32.3417 20.0583 33.475 20.875C34.6083 21.6917 35.175 22.85 35.175 24.35Z" fill="white"/>
</svg>
