<svg width="40" height="41" viewBox="0 0 40 41" fill="none" xmlns="http://www.w3.org/2000/svg">
<g filter="url(#filter0_b_2055_3167)">
<rect y="0.5" width="40" height="40" rx="20" fill="#202020"/>
<path d="M18.5252 26C18.5252 25.2499 18.5252 24.5253 18.5252 23.8262C18.5252 23.1271 18.5252 22.4681 18.5252 21.8491V19.1509C18.5252 18.5319 18.5252 17.8729 18.5252 17.1738C18.5252 16.4747 18.5252 15.7501 18.5252 15H21.4748C21.4748 15.7501 21.4748 16.4747 21.4748 17.1738C21.4748 17.8729 21.4748 18.5319 21.4748 19.1509V21.8491C21.4748 22.4681 21.4748 23.1271 21.4748 23.8262C21.4748 24.5253 21.4748 25.2499 21.4748 26H18.5252ZM14.5 21.9146V19.0854C15.2614 19.0854 15.997 19.0854 16.7067 19.0854C17.4163 19.0854 18.0817 19.0854 18.7026 19.0854H21.2863C21.9147 19.0854 22.5837 19.0854 23.2933 19.0854C24.003 19.0854 24.7386 19.0854 25.5 19.0854V21.9146C24.7386 21.9146 24.003 21.9146 23.2933 21.9146C22.5837 21.9146 21.9147 21.9146 21.2863 21.9146H18.7026C18.0817 21.9146 17.4163 21.9146 16.7067 21.9146C15.997 21.9146 15.2614 21.9146 14.5 21.9146Z" fill="white"/>
</g>
<defs>
<filter id="filter0_b_2055_3167" x="-100" y="-99.5" width="240" height="240" filterUnits="userSpaceOnUse" color-interpolation-filters="sRGB">
<feFlood flood-opacity="0" result="BackgroundImageFix"/>
<feGaussianBlur in="BackgroundImageFix" stdDeviation="50"/>
<feComposite in2="SourceAlpha" operator="in" result="effect1_backgroundBlur_2055_3167"/>
<feBlend mode="normal" in="SourceGraphic" in2="effect1_backgroundBlur_2055_3167" result="shape"/>
</filter>
</defs>
</svg>
