<svg width="40" height="40" viewBox="0 0 40 40" fill="none" xmlns="http://www.w3.org/2000/svg">
<g filter="url(#filter0_b_2053_3140)">
<rect width="40" height="40" rx="20" fill="#B7090A"/>
<path d="M15.0681 22.8463C15.5985 22.316 16.1108 21.8036 16.6052 21.3092C17.0995 20.8149 17.5655 20.3489 18.0032 19.9112L19.9111 18.0033C20.3488 17.5656 20.8148 17.0996 21.3092 16.6053C21.8035 16.1109 22.3159 15.5986 22.8462 15.0682L24.9319 17.1539C24.4015 17.6842 23.8892 18.1966 23.3948 18.6909C22.9005 19.1853 22.4345 19.6513 21.9968 20.089L20.0889 21.9969C19.6512 22.4346 19.1852 22.9006 18.6908 23.3949C18.1965 23.8893 17.6841 24.4016 17.1538 24.932L15.0681 22.8463ZM15.1106 17.1113L17.1112 15.1107C17.6496 15.6491 18.1697 16.1693 18.6715 16.6711C19.1733 17.1729 19.6438 17.6434 20.0829 18.0824L21.9098 19.9094C22.3541 20.3537 22.8272 20.8268 23.329 21.3286C23.8308 21.8304 24.3509 22.3505 24.8894 22.8889L22.8888 24.8895C22.3504 24.351 21.8303 23.8309 21.3285 23.3291C20.8267 22.8273 20.3536 22.3542 19.9093 21.9099L18.0823 20.083C17.6433 19.6439 17.1728 19.1734 16.671 18.6716C16.1692 18.1698 15.649 17.6497 15.1106 17.1113Z" fill="white"/>
</g>
<defs>
<filter id="filter0_b_2053_3140" x="-100" y="-100" width="240" height="240" filterUnits="userSpaceOnUse" color-interpolation-filters="sRGB">
<feFlood flood-opacity="0" result="BackgroundImageFix"/>
<feGaussianBlur in="BackgroundImageFix" stdDeviation="50"/>
<feComposite in2="SourceAlpha" operator="in" result="effect1_backgroundBlur_2053_3140"/>
<feBlend mode="normal" in="SourceGraphic" in2="effect1_backgroundBlur_2053_3140" result="shape"/>
</filter>
</defs>
</svg>
