<svg width="47" height="47" viewBox="0 0 47 47" fill="none" xmlns="http://www.w3.org/2000/svg">
<rect width="47" height="47" rx="23.5" fill="#B7090A"/>
<path d="M23.5029 11.75H23.4971C17.0184 11.75 11.75 17.0199 11.75 23.5C11.75 26.0703 12.5784 28.4526 13.9869 30.387L12.5226 34.7521L17.039 33.3083C18.8969 34.5391 21.1133 35.25 23.5029 35.25C29.9816 35.25 35.25 29.9787 35.25 23.5C35.25 17.0213 29.9816 11.75 23.5029 11.75ZM30.34 28.3425C30.0565 29.1429 28.9314 29.8068 28.034 30.0007C27.4201 30.1314 26.6182 30.2357 23.9186 29.1165C20.4656 27.6859 18.2419 24.1771 18.0686 23.9494C17.9026 23.7218 16.6733 22.0915 16.6733 20.4053C16.6733 18.7192 17.5295 17.8982 17.8747 17.5457C18.1582 17.2563 18.6267 17.1242 19.0761 17.1242C19.2215 17.1242 19.3523 17.1315 19.4697 17.1374C19.8149 17.1521 19.9882 17.1726 20.2159 17.7175C20.4993 18.4005 21.1897 20.0866 21.2719 20.2599C21.3556 20.4333 21.4393 20.6683 21.3218 20.8959C21.2117 21.1309 21.1147 21.2352 20.9414 21.4349C20.7681 21.6347 20.6036 21.7874 20.4303 22.0019C20.2717 22.1884 20.0925 22.3882 20.2922 22.7333C20.492 23.0711 21.1823 24.1977 22.1987 25.1024C23.5103 26.2701 24.5737 26.6431 24.9541 26.8018C25.2375 26.9193 25.5753 26.8913 25.7824 26.671C26.0453 26.3876 26.3699 25.9176 26.7004 25.4549C26.9354 25.123 27.2321 25.0818 27.5435 25.1993C27.8607 25.3095 29.5395 26.1393 29.8847 26.3112C30.2298 26.4845 30.4575 26.5668 30.5412 26.7122C30.6234 26.8576 30.6234 27.5405 30.34 28.3425Z" fill="white"/>
</svg>
