<svg width="45.000000" height="45.000000" viewBox="0 0 45 45" fill="none" xmlns="http://www.w3.org/2000/svg" xmlns:xlink="http://www.w3.org/1999/xlink">
	<desc>
			Created with Pixso.
	</desc>
	<defs>
		<clipPath id="clip2162_12545">
			<rect id="icon" rx="22.500000" width="45.000000" height="45.000000" fill="white" fill-opacity="0"/>
		</clipPath>
	</defs>
	<rect id="icon" rx="22.500000" width="45.000000" height="45.000000" fill="#FFFFFF" fill-opacity="1.000000"/>
	<g clip-path="url(#clip2162_12545)">
		<path id="Vector" d="M22.5 11.25L22.49 11.25C16.29 11.25 11.25 16.29 11.25 22.5C11.25 24.96 12.04 27.24 13.39 29.09L11.98 33.27L16.31 31.89C18.09 33.06 20.21 33.75 22.5 33.75C28.7 33.75 33.75 28.7 33.75 22.5C33.75 16.29 28.7 11.25 22.5 11.25ZM29.04 27.13C28.77 27.9 27.7 28.53 26.84 28.72C26.25 28.84 25.48 28.94 22.9 27.87C19.59 26.5 17.46 23.14 17.29 22.93C17.14 22.71 15.96 21.15 15.96 19.53C15.96 17.92 16.78 17.13 17.11 16.79C17.38 16.52 17.83 16.39 18.26 16.39C18.4 16.39 18.52 16.4 18.64 16.4C18.97 16.42 19.13 16.44 19.35 16.96C19.62 17.61 20.28 19.23 20.36 19.39C20.44 19.56 20.52 19.78 20.41 20C20.3 20.23 20.21 20.33 20.05 20.52C19.88 20.71 19.72 20.86 19.56 21.06C19.4 21.24 19.23 21.43 19.42 21.76C19.62 22.08 20.28 23.16 21.25 24.03C22.5 25.15 23.52 25.5 23.89 25.66C24.16 25.77 24.48 25.74 24.68 25.53C24.93 25.26 25.24 24.81 25.56 24.37C25.78 24.05 26.07 24.01 26.37 24.12C26.67 24.23 28.28 25.02 28.61 25.19C28.94 25.35 29.16 25.43 29.24 25.57C29.32 25.71 29.32 26.36 29.04 27.13Z" fill="#B7090A" fill-opacity="1.000000" fill-rule="nonzero"/>
	</g>
</svg>
