<svg width="21" height="20" viewBox="0 0 21 20" fill="none" xmlns="http://www.w3.org/2000/svg">
<path d="M9.54894 1.42705C9.8483 0.505738 11.1517 0.50574 11.4511 1.42705L13.0819 6.4463C13.2158 6.85833 13.5997 7.13729 14.033 7.13729H19.3105C20.2792 7.13729 20.682 8.3769 19.8983 8.9463L15.6287 12.0484C15.2782 12.303 15.1315 12.7544 15.2654 13.1664L16.8963 18.1857C17.1956 19.107 16.1411 19.8731 15.3574 19.3037L11.0878 16.2016C10.7373 15.947 10.2627 15.947 9.91221 16.2016L5.64258 19.3037C4.85887 19.8731 3.80439 19.107 4.10374 18.1857L5.7346 13.1664C5.86847 12.7544 5.72181 12.303 5.37132 12.0484L1.10169 8.9463C0.317977 8.3769 0.720754 7.13729 1.68948 7.13729H6.96703C7.40026 7.13729 7.78421 6.85833 7.91809 6.4463L9.54894 1.42705Z" fill="#FFCF55"/>
</svg>
