<svg width="45" height="45" viewBox="0 0 45 45" fill="none" xmlns="http://www.w3.org/2000/svg">
<rect width="45" height="45" rx="22.5" fill="#B7090A"/>
<g clip-path="url(#clip0_6_4427)">
<path d="M34.9476 14.6302C33.973 13.4716 32.1736 12.999 28.7371 12.999H16.2627C12.7475 12.999 10.9176 13.5021 9.94665 14.7356C9 15.9382 9 17.7102 9 20.1626V24.837C9 29.5883 10.1232 32.0006 16.2627 32.0006H28.7372C31.7173 32.0006 33.3686 31.5836 34.437 30.5611C35.5326 29.5127 36 27.8008 36 24.837V20.1626C36 17.5763 35.9268 15.7939 34.9476 14.6302ZM26.3341 23.1452L20.6695 26.1057C20.5367 26.1752 20.3883 26.2092 20.2386 26.2045C20.0888 26.1998 19.9428 26.1566 19.8147 26.079C19.6865 26.0013 19.5806 25.892 19.5071 25.7614C19.4336 25.6309 19.395 25.4836 19.3951 25.3338V19.4317C19.3951 19.2821 19.4336 19.1351 19.507 19.0047C19.5803 18.8743 19.686 18.765 19.8139 18.6874C19.9417 18.6097 20.0874 18.5663 20.2369 18.5613C20.3865 18.5563 20.5347 18.5899 20.6675 18.6588L26.3321 21.6003C26.4735 21.6737 26.592 21.7844 26.6748 21.9205C26.7576 22.0566 26.8015 22.2128 26.8017 22.3721C26.8019 22.5314 26.7584 22.6877 26.676 22.824C26.5935 22.9603 26.4753 23.0714 26.3341 23.1452Z" fill="white"/>
</g>
<defs>
<clipPath id="clip0_6_4427">
<rect width="27" height="27" fill="white" transform="translate(9 9)"/>
</clipPath>
</defs>
</svg>
