<svg width="60" height="60" viewBox="0 0 60 60" fill="none" xmlns="http://www.w3.org/2000/svg">
<rect width="60" height="60" rx="30" fill="white"/>
<g clip-path="url(#clip0_6_4232)">
<path d="M44.7137 19.8813C43.5226 18.4653 41.3233 17.8877 37.1231 17.8877H21.8766C17.5803 17.8877 15.3437 18.5026 14.157 20.0101C13 21.48 13 23.6458 13 26.6432V32.3564C13 38.1634 14.3728 41.1118 21.8766 41.1118H37.1232C40.7656 41.1118 42.7839 40.6021 44.0896 39.3525C45.4287 38.071 46 35.9787 46 32.3564V26.6432C46 23.4822 45.9105 21.3036 44.7137 19.8813ZM34.1861 30.2886L27.2627 33.907C27.1005 33.9919 26.9191 34.0335 26.736 34.0277C26.553 34.022 26.3746 33.9692 26.218 33.8743C26.0613 33.7794 25.9318 33.6457 25.842 33.4862C25.7522 33.3266 25.705 33.1466 25.7051 32.9635V25.7499C25.7051 25.5671 25.7522 25.3873 25.8419 25.228C25.9315 25.0686 26.0607 24.9351 26.217 24.8401C26.3732 24.7452 26.5513 24.6921 26.734 24.686C26.9168 24.6799 27.098 24.721 27.2603 24.8052L34.1837 28.4003C34.3565 28.49 34.5013 28.6254 34.6025 28.7918C34.7037 28.9581 34.7574 29.149 34.7576 29.3437C34.7579 29.5384 34.7047 29.7294 34.604 29.896C34.5032 30.0626 34.3587 30.1984 34.1861 30.2886Z" fill="#202020"/>
</g>
<defs>
<clipPath id="clip0_6_4232">
<rect width="33" height="33" fill="white" transform="translate(13 13)"/>
</clipPath>
</defs>
</svg>
