<svg width="45.000000" height="45.000000" viewBox="0 0 45 45" fill="none" xmlns="http://www.w3.org/2000/svg" xmlns:xlink="http://www.w3.org/1999/xlink">
	<desc>
			Created with Pixso.
	</desc>
	<defs>
		<clipPath id="clip2162_12552">
			<rect id="Frame" width="27.000000" height="27.000000" transform="translate(9.000000 9.000000)" fill="white" fill-opacity="0"/>
		</clipPath>
		<clipPath id="clip2162_12551">
			<rect id="icon" rx="22.500000" width="45.000000" height="45.000000" fill="white" fill-opacity="0"/>
		</clipPath>
	</defs>
	<rect id="icon" rx="22.500000" width="45.000000" height="45.000000" fill="#FFFFFF" fill-opacity="1.000000"/>
	<g clip-path="url(#clip2162_12551)">
		<rect id="Frame" width="27.000000" height="27.000000" transform="translate(9.000000 9.000000)" fill="#FFFFFF" fill-opacity="0"/>
		<g clip-path="url(#clip2162_12552)">
			<path id="Vector" d="M34.94 14.62C33.97 13.47 32.17 12.99 28.73 12.99L16.26 12.99C12.74 12.99 10.91 13.5 9.94 14.73C9 15.93 9 17.7 9 20.16L9 24.83C9 29.58 10.12 32 16.26 32L28.73 32C31.71 32 33.36 31.58 34.43 30.56C35.53 29.51 36 27.8 36 24.83L36 20.16C36 17.57 35.92 15.79 34.94 14.62ZM26.33 23.14L20.66 26.1C20.53 26.17 20.38 26.2 20.23 26.2C20.08 26.2 19.94 26.15 19.81 26.07C19.68 26 19.58 25.89 19.5 25.76C19.43 25.63 19.39 25.48 19.39 25.33L19.39 19.43C19.39 19.28 19.43 19.13 19.5 19C19.58 18.87 19.68 18.76 19.81 18.68C19.94 18.6 20.08 18.56 20.23 18.56C20.38 18.55 20.53 18.58 20.66 18.65L26.33 21.6C26.47 21.67 26.59 21.78 26.67 21.92C26.75 22.05 26.8 22.21 26.8 22.37C26.8 22.53 26.75 22.68 26.67 22.82C26.59 22.96 26.47 23.07 26.33 23.14Z" fill="#B7090A" fill-opacity="1.000000" fill-rule="nonzero"/>
		</g>
	</g>
</svg>
